<?xml version="1.0" encoding="UTF-8" standalone="no"?>
<!-- Created with Inkscape (http://www.inkscape.org/) -->

<svg
   xmlns:dc="http://purl.org/dc/elements/1.1/"
   xmlns:cc="http://creativecommons.org/ns#"
   xmlns:rdf="http://www.w3.org/1999/02/22-rdf-syntax-ns#"
   xmlns:svg="http://www.w3.org/2000/svg"
   xmlns="http://www.w3.org/2000/svg"
   xmlns:sodipodi="http://sodipodi.sourceforge.net/DTD/sodipodi-0.dtd"
   xmlns:inkscape="http://www.inkscape.org/namespaces/inkscape"
   width="1984.375mm"
   height="1322.9166mm"
   viewBox="0 0 1984.375 1322.9166"
   version="1.1"
   id="svg1861"
   inkscape:version="0.92.3 (2405546, 2018-03-11)"
   sodipodi:docname="BrisbaneFlag.svg">
  <defs
     id="defs1855" />
  <sodipodi:namedview
     id="base"
     pagecolor="#ffffff"
     bordercolor="#666666"
     borderopacity="1.0"
     inkscape:pageopacity="0.0"
     inkscape:pageshadow="2"
     inkscape:zoom="0.030935922"
     inkscape:cx="1326.9682"
     inkscape:cy="-346.37464"
     inkscape:document-units="mm"
     inkscape:current-layer="layer1"
     showgrid="false"
     inkscape:window-width="3440"
     inkscape:window-height="1377"
     inkscape:window-x="-8"
     inkscape:window-y="-8"
     inkscape:window-maximized="1" />
  <metadata
     id="metadata1858">
    <rdf:RDF>
      <cc:Work
         rdf:about="">
        <dc:format>image/svg+xml</dc:format>
        <dc:type
           rdf:resource="http://purl.org/dc/dcmitype/StillImage" />
        <dc:title></dc:title>
      </cc:Work>
    </rdf:RDF>
  </metadata>
  <g
     inkscape:label="Layer 1"
     inkscape:groupmode="layer"
     id="layer1"
     transform="translate(769.18158,513.38092)">
    <rect
       y="-513.38092"
       x="-769.18158"
       height="1322.9166"
       width="1984.375"
       id="rect8023-6"
       style="opacity:1;fill:#ffffff;fill-opacity:1;stroke:none;stroke-width:55.12152481;stroke-linecap:butt;stroke-linejoin:miter;stroke-miterlimit:4;stroke-dasharray:none;stroke-dashoffset:0;stroke-opacity:1;paint-order:markers fill stroke" />
    <rect
       y="-309.43127"
       x="-769.18152"
       height="403.94238"
       width="1984.375"
       id="rect8023-6-7"
       style="opacity:1;fill:#2c5aa0;fill-opacity:1;stroke:none;stroke-width:30.45893478;stroke-linecap:butt;stroke-linejoin:miter;stroke-miterlimit:4;stroke-dasharray:none;stroke-dashoffset:0;stroke-opacity:1;paint-order:markers fill stroke" />
    <g
       transform="matrix(0.91869212,0,0,0.91869212,-2026.884,-2104.8855)"
       id="g1569">
      <path
         sodipodi:type="star"
         style="opacity:1;fill:#ffffff;fill-opacity:1;stroke:none;stroke-width:3.17457008;stroke-linecap:butt;stroke-linejoin:miter;stroke-miterlimit:4;stroke-dasharray:none;stroke-dashoffset:0;stroke-opacity:1;paint-order:markers fill stroke"
         id="path1543"
         sodipodi:sides="5"
         sodipodi:cx="1517.3239"
         sodipodi:cy="2089.4856"
         sodipodi:r1="85.73996"
         sodipodi:r2="32.752666"
         sodipodi:arg1="-1.5707963"
         sodipodi:arg2="-0.9424778"
         inkscape:flatsided="false"
         inkscape:rounded="0"
         inkscape:randomized="0"
         d="m 1517.3239,2003.7456 19.2515,59.2425 62.292,0 -50.3939,36.6162 19.247,59.244 -50.3966,-36.6124 -50.3967,36.6124 19.247,-59.244 -50.3939,-36.6162 62.292,-0 z"
         inkscape:transform-center-y="-8.1873444"
         inkscape:transform-center-x="9.656847e-005" />
      <path
         sodipodi:type="star"
         style="opacity:1;fill:#ffffff;fill-opacity:1;stroke:none;stroke-width:3.17457008;stroke-linecap:butt;stroke-linejoin:miter;stroke-miterlimit:4;stroke-dasharray:none;stroke-dashoffset:0;stroke-opacity:1;paint-order:markers fill stroke"
         id="path1543-1"
         sodipodi:sides="5"
         sodipodi:cx="1693.6794"
         sodipodi:cy="2182.3928"
         sodipodi:r1="85.73996"
         sodipodi:r2="32.752666"
         sodipodi:arg1="-1.5707963"
         sodipodi:arg2="-0.9424778"
         inkscape:flatsided="false"
         inkscape:rounded="0"
         inkscape:randomized="0"
         d="m 1693.6794,2096.6529 19.2516,59.2425 62.292,0 -50.3939,36.6163 19.247,59.2439 -50.3967,-36.6124 -50.3966,36.6124 19.247,-59.2439 -50.3939,-36.6163 62.292,-0 z"
         inkscape:transform-center-y="-8.1873444"
         inkscape:transform-center-x="9.656847e-005" />
      <path
         sodipodi:type="star"
         style="opacity:1;fill:#ffffff;fill-opacity:1;stroke:none;stroke-width:3.17457008;stroke-linecap:butt;stroke-linejoin:miter;stroke-miterlimit:4;stroke-dasharray:none;stroke-dashoffset:0;stroke-opacity:1;paint-order:markers fill stroke"
         id="path1543-8"
         sodipodi:sides="5"
         sodipodi:cx="1870.0352"
         sodipodi:cy="2275.3003"
         sodipodi:r1="85.73996"
         sodipodi:r2="32.752666"
         sodipodi:arg1="-1.5707963"
         sodipodi:arg2="-0.9424778"
         inkscape:flatsided="false"
         inkscape:rounded="0"
         inkscape:randomized="0"
         d="m 1870.0352,2189.5603 19.2515,59.2425 62.292,0 -50.3939,36.6162 19.247,59.244 -50.3966,-36.6124 -50.3967,36.6124 19.247,-59.244 -50.3939,-36.6162 62.292,-0 z"
         inkscape:transform-center-y="-8.1873444"
         inkscape:transform-center-x="9.656847e-005" />
    </g>
    <g
       transform="matrix(0.91869212,0,0,0.91869212,-2024.7425,-2119.8115)"
       id="g1643">
      <text
         xml:space="preserve"
         style="font-style:normal;font-variant:normal;font-weight:bold;font-stretch:normal;font-size:72.24401093px;line-height:1.25;font-family:'Sitka Text';-inkscape-font-specification:'Sitka Text Bold';letter-spacing:0px;word-spacing:0px;fill:#000000;fill-opacity:1;stroke:none;stroke-width:1.80610025"
         x="2774.6238"
         y="2564.6855"
         id="text1573"><tspan
           sodipodi:role="line"
           id="tspan1571"
           x="2774.6238"
           y="2564.6855"
           style="font-style:normal;font-variant:normal;font-weight:bold;font-stretch:normal;font-family:'Sitka Text';-inkscape-font-specification:'Sitka Text Bold';stroke-width:1.80610025">CITY       BRISBANE</tspan></text>
      <text
         xml:space="preserve"
         style="font-style:normal;font-variant:normal;font-weight:bold;font-stretch:normal;font-size:65.11373138px;line-height:1.25;font-family:'Sitka Text';-inkscape-font-specification:'Sitka Text Bold';letter-spacing:0px;word-spacing:0px;fill:#000000;fill-opacity:1;stroke:none;stroke-width:1.62784326"
         x="2975.5305"
         y="2564.8223"
         id="text1573-9"><tspan
           sodipodi:role="line"
           id="tspan1571-8"
           x="2975.5305"
           y="2564.8223"
           style="font-style:normal;font-variant:normal;font-weight:bold;font-stretch:normal;font-family:'Sitka Text';-inkscape-font-specification:'Sitka Text Bold';stroke-width:1.62784326">OF</tspan></text>
    </g>
    <text
       id="text1573-9-0"
       y="657.92657"
       x="672.19196"
       style="font-style:normal;font-variant:normal;font-weight:bold;font-stretch:normal;font-size:59.81946945px;line-height:1.25;font-family:'Sitka Text';-inkscape-font-specification:'Sitka Text Bold';letter-spacing:0px;word-spacing:0px;fill:#000000;fill-opacity:1;stroke:none;stroke-width:1.49548686"
       xml:space="preserve"><tspan
         style="font-style:normal;font-variant:normal;font-weight:bold;font-stretch:normal;font-family:'Sitka Text';-inkscape-font-specification:'Sitka Text Bold';stroke-width:1.49548686"
         y="657.92657"
         x="672.19196"
         id="tspan1571-8-2"
         sodipodi:role="line">SINCE 1858</tspan></text>
    <g
       transform="matrix(0.91869212,0,0,0.91869212,-2026.884,-2090.1671)"
       id="g1773">
      <path
         style="fill:#666666;stroke:#000000;stroke-width:2;stroke-linecap:butt;stroke-linejoin:miter;stroke-miterlimit:4;stroke-dasharray:none;stroke-opacity:1"
         d="m 3168.3955,2863.4041 -49.4944,-12.8568 -7.1427,3.1932 -46.2171,-2.689 -14.9575,8.9913 67.0568,9.0754"
         id="path1715"
         inkscape:connector-curvature="0" />
      <g
         id="g1694"
         transform="matrix(0.09767751,0,0,0.09767751,2564.7697,2500.9451)"
         style="stroke:#000000;stroke-width:20.47554207;stroke-miterlimit:4;stroke-dasharray:none;stroke-opacity:1">
        <path
           sodipodi:nodetypes="csccssscccccccccccc"
           inkscape:connector-curvature="0"
           id="path1662-1"
           d="m 6380.7218,3679.4368 1225.614,-328.402 v -2305.526 h -271.31 c -201.769,121.825 -165.365,320.895 -212.911,492.738 l -70.565,-138.697 c -78.273,243.561 37.249,376.381 55.965,564.519 l -107.064,-58.398 c 51.46,202.884 53.49,343.273 238.461,486.654 l -99.764,-48.665 c -41.483,154.979 188.291,413.721 236.027,588.852 l -58.398,-51.099 c -41.589,151.582 34.12,338.354 51.181,507.531 -117.042,-490.539 -205.785,-970.557 -1559.723,-1154.345 l -419.484,-482.675 c 0,0 -90.272,-44.2 -145.878,-56.469 -121.865,-26.888 -257.027,-31.397 -378.476,-2.689 -30.868,7.296 -87.393,37.646 -87.393,37.646 -6.986,8.658 -81.439,70.428 -184.984,140.683 -5.799,-1.847 -13.87,5.604 -23.413,11.245 0,0 -22.502,39.872 -22.857,61.847 -0.182,11.336 10.756,32.268 10.756,32.268 l -6.9766,36.9613 27.5293,62.8013 64.6255,39.992 59.2566,-4.7201 -36.9926,15.4853 242.6023,224.5362 96.0553,128.5596 338.4507,969.7183 -23.2864,57.0942 -39.4601,34.1734 -108.3803,-28.5211 -42.2841,12.4138 -7.1525,42.727 146.5198,53.1956 149.2606,-32.6911 58.0697,9.033 65.3822,20.2169 61.081,-22.7974 44.3048,-276.1541 80.9132,-52.0003 83.3396,-1.2166 113.1472,43.1905 77.2564,52.3154 260.3603,208.0449 60.1539,39.7435"
           style="fill:#aa8800;stroke:none;stroke-width:20.47554207;stroke-linecap:butt;stroke-linejoin:miter;stroke-miterlimit:4;stroke-dasharray:none;stroke-opacity:1" />
        <path
           sodipodi:nodetypes="ccccccccsc"
           inkscape:connector-curvature="0"
           id="path1658"
           d="m 4641.684,2116.2094 c 174.2454,115.2174 277.7191,245.0733 360.9216,363.861 127.3012,317.0319 226.9012,645.9357 338.4507,969.7183 -4.4799,41.3796 -32.0106,67.392 -62.7465,91.2676 -30.0296,-11.7935 -58.6967,-24.0979 -108.3803,-28.5211 -66.7219,7.6139 -50.1017,33.0868 -49.4366,55.1408 4.3325,26.4946 98.3446,36.6839 152.1127,54.1902 52.2901,-12.3578 117.7236,-11.5722 156.8662,-37.0775 0,0 193.4497,-333.9542 351.7606,-321.338 208.8422,16.6431 535.1767,381.2488 539.0492,345.1056"
           style="fill:none;stroke:#000000;stroke-width:20.47554207;stroke-linecap:butt;stroke-linejoin:miter;stroke-miterlimit:4;stroke-dasharray:none;stroke-opacity:1" />
        <path
           sodipodi:nodetypes="ccc"
           inkscape:connector-curvature="0"
           id="path1670"
           d="m 5109.4316,1675.9595 c 55.3485,-41.7915 99.4001,-91.799 166.0456,-125.3745 26.5716,48.6657 13.9,108.7076 22.8847,153.3763"
           style="fill:#aa8800;fill-opacity:1;stroke:#000000;stroke-width:20.47554207;stroke-linecap:butt;stroke-linejoin:miter;stroke-miterlimit:4;stroke-dasharray:none;stroke-opacity:1" />
        <path
           sodipodi:nodetypes="csccssscccccccccccc"
           inkscape:connector-curvature="0"
           id="path1662"
           d="m 4556.5064,1976.455 c 0,0 -10.9388,-20.9317 -10.756,-32.268 0.3544,-21.9756 22.8565,-61.8469 22.8565,-61.8469 9.5432,-5.6414 17.6145,-13.0926 23.4134,-11.2453 103.545,-70.2548 177.9975,-132.0246 184.9839,-140.6831 0,0 56.5245,-30.3494 87.3925,-37.6459 121.4495,-28.7081 256.611,-24.1992 378.4763,2.689 55.6062,12.2689 145.8782,56.4689 145.8782,56.4689 l 419.4836,482.6751 c 1353.9382,183.7882 1442.6808,663.8064 1559.7229,1154.3448 -17.0604,-169.1768 -92.7696,-355.9483 -51.1812,-507.5305 l 58.3985,51.0987 c -47.736,-175.1308 -277.5102,-433.8725 -236.0275,-588.852 l 99.7642,48.6654 C 7053.9408,2248.9435 7051.9108,2108.5548 7000.451,1905.6706 l 107.064,58.3986 c -18.7161,-188.1383 -134.2385,-320.9587 -55.9653,-564.5194 l 70.5649,138.6966 c 47.5464,-171.8429 11.1425,-370.913 212.9114,-492.7378 h 271.3099 V 3351.0348 L 6380.7222,3679.437"
           style="fill:none;stroke:#000000;stroke-width:20.47554207;stroke-linecap:butt;stroke-linejoin:miter;stroke-miterlimit:4;stroke-dasharray:none;stroke-opacity:1" />
        <path
           sodipodi:nodetypes="ccscc"
           inkscape:connector-curvature="0"
           id="path1664"
           d="m 5288.2922,1853.5563 c -32.2843,-104.0274 -17.5328,-183.5808 105.5282,-206.7781 25.6639,35.8323 39.7908,73.0186 33.2746,119.7887 -6.1796,44.3537 -11.6246,82.8505 -23.2922,124.0669 -15.1461,41.3695 -46.9015,52.2887 -70.3522,78.4331"
           style="fill:#aa8800;fill-opacity:1;stroke:#000000;stroke-width:20.47554207;stroke-linecap:butt;stroke-linejoin:miter;stroke-miterlimit:4;stroke-dasharray:none;stroke-opacity:1" />
        <path
           inkscape:connector-curvature="0"
           id="path1666"
           d="m 5162.8754,1782.5111 c -0.4482,0.112 -0.8963,0.2241 -1.3445,0.3361"
           style="fill:none;stroke:#000000;stroke-width:20.47554207;stroke-linecap:butt;stroke-linejoin:miter;stroke-miterlimit:4;stroke-dasharray:none;stroke-opacity:1" />
        <path
           sodipodi:nodetypes="cc"
           inkscape:connector-curvature="0"
           id="path1668"
           d="m 5319.3415,1675.2873 -169.9111,118.652"
           style="fill:none;stroke:#000000;stroke-width:20.47554207;stroke-linecap:butt;stroke-linejoin:miter;stroke-miterlimit:4;stroke-dasharray:none;stroke-opacity:1" />
        <path
           sodipodi:nodetypes="ccsc"
           inkscape:connector-curvature="0"
           id="path1672"
           d="m 4872.5458,1919.2197 c 80.3464,19.8799 146.7433,22.5585 196.1245,-38.4705 -6.235,-4.0383 -18.4836,-11.3525 -24.6649,-15.0864 -72.1367,-43.5755 -126.9955,-59.9762 -171.4596,53.5569 z"
           style="fill:#000000;fill-opacity:1;stroke:#000000;stroke-width:20.47554207;stroke-linecap:butt;stroke-linejoin:miter;stroke-miterlimit:4;stroke-dasharray:none;stroke-opacity:1" />
        <path
           sodipodi:nodetypes="cc"
           inkscape:connector-curvature="0"
           id="path1674"
           d="m 6562.4986,2776.4318 c -738.6686,352.6538 -250.2413,779.7581 -168.0623,945.1827"
           style="fill:none;stroke:#000000;stroke-width:20.47554207;stroke-linecap:butt;stroke-linejoin:miter;stroke-miterlimit:4;stroke-dasharray:none;stroke-opacity:1" />
        <path
           inkscape:connector-curvature="0"
           id="path1676"
           d="m 4675.5633,1985.7042 271.9015,15.2113"
           style="fill:none;stroke:#000000;stroke-width:20.47554207;stroke-linecap:butt;stroke-linejoin:miter;stroke-miterlimit:4;stroke-dasharray:none;stroke-opacity:1" />
        <path
           inkscape:connector-curvature="0"
           id="path1678"
           d="m 4664.1549,2018.0282 256.6901,38.0281"
           style="fill:none;stroke:#000000;stroke-width:20.47554207;stroke-linecap:butt;stroke-linejoin:miter;stroke-miterlimit:4;stroke-dasharray:none;stroke-opacity:1" />
        <path
           sodipodi:nodetypes="casscc"
           inkscape:connector-curvature="0"
           id="path1660"
           d="m 4785.8035,2081.2639 c 0,0 -100.6519,49.2347 -149.1613,33.601 -42.1662,-13.5894 -76.7779,-56.616 -88.2028,-99.4194 -3.4227,-12.8232 -2.3312,-30.7428 8.067,-38.9905 13.6983,-10.8653 52.4355,1.3445 52.4355,1.3445 l -29.2429,27.2261"
           style="fill:none;stroke:#000000;stroke-width:20.47554207;stroke-linecap:butt;stroke-linejoin:miter;stroke-miterlimit:4;stroke-dasharray:none;stroke-opacity:1" />
        <path
           inkscape:connector-curvature="0"
           id="path1680"
           d="m 4645.1408,2065.5634 330.8451,41.831"
           style="fill:none;stroke:#000000;stroke-width:20.47554207;stroke-linecap:butt;stroke-linejoin:miter;stroke-miterlimit:4;stroke-dasharray:none;stroke-opacity:1" />
      </g>
      <path
         style="fill:none;stroke:#000000;stroke-width:2;stroke-linecap:butt;stroke-linejoin:miter;stroke-miterlimit:4;stroke-dasharray:none;stroke-opacity:1"
         d="m 3116.044,2825.8421 -4.2015,26.2178 c -7.3812,5.4481 -11.3503,-0.023 -16.7355,-0.9616"
         id="path1696"
         inkscape:connector-curvature="0"
         sodipodi:nodetypes="ccc" />
      <path
         style="fill:none;stroke:#000000;stroke-width:2;stroke-linecap:butt;stroke-linejoin:miter;stroke-miterlimit:4;stroke-dasharray:none;stroke-opacity:1"
         d="m 3108.2086,2833.0194 c 6.0207,-18.0963 13.679,-42.1966 13.2289,-63.669"
         id="path1698"
         inkscape:connector-curvature="0"
         sodipodi:nodetypes="cc" />
      <path
         style="fill:none;stroke:#000000;stroke-width:8.44833183;stroke-linecap:butt;stroke-linejoin:miter;stroke-miterlimit:4;stroke-dasharray:none;stroke-opacity:1"
         d="m 3307.0691,2828.8359 v -226.753 h -371.4648 v 226.753 c 0,0 122.3489,40.7505 185.7324,40.7505 63.3834,0 185.7324,-40.7505 185.7324,-40.7505 z"
         id="path1645"
         inkscape:connector-curvature="0"
         sodipodi:nodetypes="ccccsc" />
      <path
         sodipodi:type="star"
         style="opacity:1;fill:#2c5aa0;fill-opacity:1;stroke:#000000;stroke-width:2;stroke-linecap:butt;stroke-linejoin:miter;stroke-miterlimit:4;stroke-dasharray:none;stroke-dashoffset:0;stroke-opacity:1;paint-order:markers fill stroke"
         id="path1717"
         sodipodi:sides="5"
         sodipodi:cx="3163.1863"
         sodipodi:cy="2660.3701"
         sodipodi:r1="19.264959"
         sodipodi:r2="7.3592148"
         sodipodi:arg1="-1.5707963"
         sodipodi:arg2="-0.9424778"
         inkscape:flatsided="false"
         inkscape:rounded="0"
         inkscape:randomized="0"
         d="m 3163.1863,2641.1052 4.3256,13.3112 13.9964,5e-4 -11.323,8.2273 4.3246,13.3116 -11.3236,-8.2265 -11.3237,8.2265 4.3247,-13.3116 -11.3231,-8.2273 13.9964,-5e-4 z"
         inkscape:transform-center-y="-1.83964" />
      <path
         sodipodi:type="star"
         style="opacity:1;fill:#2c5aa0;fill-opacity:1;stroke:#000000;stroke-width:2;stroke-linecap:butt;stroke-linejoin:miter;stroke-miterlimit:4;stroke-dasharray:none;stroke-dashoffset:0;stroke-opacity:1;paint-order:markers fill stroke"
         id="path1717-7"
         sodipodi:sides="5"
         sodipodi:cx="3214.0059"
         sodipodi:cy="2673.9524"
         sodipodi:r1="19.264959"
         sodipodi:r2="7.3592148"
         sodipodi:arg1="-1.5707963"
         sodipodi:arg2="-0.9424778"
         inkscape:flatsided="false"
         inkscape:rounded="0"
         inkscape:randomized="0"
         d="m 3214.0059,2654.6874 4.3256,13.3113 13.9964,5e-4 -11.323,8.2273 4.3246,13.3116 -11.3236,-8.2265 -11.3237,8.2265 4.3246,-13.3116 -11.323,-8.2273 13.9964,-5e-4 z"
         inkscape:transform-center-y="-1.83964" />
      <path
         sodipodi:type="star"
         style="opacity:1;fill:#2c5aa0;fill-opacity:1;stroke:#000000;stroke-width:2;stroke-linecap:butt;stroke-linejoin:miter;stroke-miterlimit:4;stroke-dasharray:none;stroke-dashoffset:0;stroke-opacity:1;paint-order:markers fill stroke"
         id="path1717-4"
         sodipodi:sides="5"
         sodipodi:cx="2971.6699"
         sodipodi:cy="2776.5977"
         sodipodi:r1="19.264959"
         sodipodi:r2="7.3592148"
         sodipodi:arg1="-1.5707963"
         sodipodi:arg2="-0.9424778"
         inkscape:flatsided="false"
         inkscape:rounded="0"
         inkscape:randomized="0"
         d="m 2971.6699,2757.3327 4.3257,13.3112 13.9964,6e-4 -11.323,8.2273 4.3246,13.3115 -11.3237,-8.2264 -11.3236,8.2264 4.3246,-13.3115 -11.323,-8.2273 13.9964,-6e-4 z"
         inkscape:transform-center-y="-1.83964" />
    </g>
  </g>
</svg>
